HIERARCHY
ROOT Hips
{
	OFFSET 0.000000 35.082581 0.000000
	CHANNELS 6 Xposition Yposition Zposition Xrotation Yrotation Zrotation 
	JOINT Spine
	{
		OFFSET 0.000000 6.876099 0.125700
		CHANNELS 3 Xrotation Yrotation Zrotation
		JOINT Spine1
		{
			OFFSET 0.000000 5.730043 0.104720
			CHANNELS 3 Xrotation Yrotation Zrotation
			JOINT Spine1_split
			{
				OFFSET 0.000000 5.730043 0.104720
				CHANNELS 3 Xrotation Yrotation Zrotation
				JOINT Spine2
				{
					OFFSET 0.000000 5.730043 0.104720
					CHANNELS 3 Xrotation Yrotation Zrotation
					JOINT Neck
					{
						OFFSET 0.000000 10.314075 0.188496
						CHANNELS 3 Xrotation Yrotation Zrotation
						JOINT Head
						{
							OFFSET 0.000000 7.643700 -2.377400
							CHANNELS 3 Xrotation Yrotation Zrotation
							JOINT HeadTop_End
							{
								OFFSET 0.000000 43.788605 -13.619600
								CHANNELS 3 Xrotation Yrotation Zrotation
								End Site
								{
									OFFSET 0.000000 0.000000 0.000000
								}
							}
						}
					}
					JOINT LeftShoulder
					{
						OFFSET 2.196100 4.412489 0.087492
						CHANNELS 3 Xrotation Yrotation Zrotation
						JOINT LeftShoulder_split
						{
							OFFSET 2.196100 4.412489 0.087492
							CHANNELS 3 Xrotation Yrotation Zrotation
							JOINT LeftArm
							{
								OFFSET 8.771219 -2.981674 -0.026999
								CHANNELS 3 Xrotation Yrotation Zrotation
								JOINT LeftForeArm
								{
									OFFSET 8.512804 0.000000 -0.000000
									CHANNELS 3 Xrotation Yrotation Zrotation
									JOINT LeftHand
									{
										OFFSET 18.484802 0.000000 -0.000000
										CHANNELS 3 Xrotation Yrotation Zrotation
										JOINT LeftHandThumb1
										{
											OFFSET 2.499420 -1.158070 2.653252
											CHANNELS 3 Xrotation Yrotation Zrotation
											JOINT LeftHandThumb2
											{
												OFFSET 2.370079 -1.368366 1.368366
												CHANNELS 3 Xrotation Yrotation Zrotation
												JOINT LeftHandThumb3
												{
													OFFSET 2.676727 -1.545410 1.545409
													CHANNELS 3 Xrotation Yrotation Zrotation
													JOINT LeftHandThumb4
													{
														OFFSET 1.692226 -0.977005 0.977007
														CHANNELS 3 Xrotation Yrotation Zrotation
														End Site
														{
															OFFSET 0.000000 0.000000 0.000000
														}
													}
												}
											}
										}
										JOINT LeftHandIndex1
										{
											OFFSET 7.924831 -0.457527 2.345128
											CHANNELS 3 Xrotation Yrotation Zrotation
											JOINT LeftHandIndex2
											{
												OFFSET 3.643303 0.000000 0.000000
												CHANNELS 3 Xrotation Yrotation Zrotation
												JOINT LeftHandIndex3
												{
													OFFSET 3.810799 0.000000 0.000000
													CHANNELS 3 Xrotation Yrotation Zrotation
													JOINT LeftHandIndex4
													{
														OFFSET 2.403702 0.000000 0.000000
														CHANNELS 3 Xrotation Yrotation Zrotation
														End Site
														{
															OFFSET 0.000000 0.000000 0.000000
														}
													}
												}
											}
										}
										JOINT LeftHandMiddle1
										{
											OFFSET 8.563995 0.000000 -0.000000
											CHANNELS 3 Xrotation Yrotation Zrotation
											JOINT LeftHandMiddle2
											{
												OFFSET 3.861618 0.000000 0.000000
												CHANNELS 3 Xrotation Yrotation Zrotation
												JOINT LeftHandMiddle3
												{
													OFFSET 3.701603 0.000000 0.000000
													CHANNELS 3 Xrotation Yrotation Zrotation
													JOINT LeftHandMiddle4
													{
														OFFSET 2.322544 0.000000 0.000000
														CHANNELS 3 Xrotation Yrotation Zrotation
														End Site
														{
															OFFSET 0.000000 0.000000 0.000000
														}
													}
												}
											}
										}
										JOINT LeftHandRing1
										{
											OFFSET 8.426460 -0.424637 -3.286992
											CHANNELS 3 Xrotation Yrotation Zrotation
											JOINT LeftHandRing2
											{
												OFFSET 3.126408 0.000000 0.000000
												CHANNELS 3 Xrotation Yrotation Zrotation
												JOINT LeftHandRing3
												{
													OFFSET 3.085026 0.000000 0.000000
													CHANNELS 3 Xrotation Yrotation Zrotation
													JOINT LeftHandRing4
													{
														OFFSET 1.644005 0.000000 0.000000
														CHANNELS 3 Xrotation Yrotation Zrotation
														End Site
														{
															OFFSET 0.000000 0.000000 0.000000
														}
													}
												}
											}
										}
									}
								}
							}
						}
					}
					JOINT RightShoulder
					{
						OFFSET -2.196100 4.412496 0.070690
						CHANNELS 3 Xrotation Yrotation Zrotation
						JOINT RightShoulder_split
						{
							OFFSET -2.196100 4.412496 0.070690
							CHANNELS 3 Xrotation Yrotation Zrotation
							JOINT RightArm
							{
								OFFSET -8.771282 -2.981682 -0.094208
								CHANNELS 3 Xrotation Yrotation Zrotation
								JOINT RightForeArm
								{
									OFFSET -8.494598 0.000000 0.000000
									CHANNELS 3 Xrotation Yrotation Zrotation
									JOINT RightHand
									{
										OFFSET -18.483803 0.000000 0.000001
										CHANNELS 3 Xrotation Yrotation Zrotation
										JOINT RightHandThumb1
										{
											OFFSET -2.527351 -1.008072 2.575253
											CHANNELS 3 Xrotation Yrotation Zrotation
											JOINT RightHandThumb2
											{
												OFFSET -2.321518 -1.340328 1.340329
												CHANNELS 3 Xrotation Yrotation Zrotation
												JOINT RightHandThumb3
												{
													OFFSET -2.657753 -1.534454 1.534455
													CHANNELS 3 Xrotation Yrotation Zrotation
													JOINT RightHandThumb4
													{
														OFFSET -1.807510 -1.043568 1.043567
														CHANNELS 3 Xrotation Yrotation Zrotation
														End Site
														{
															OFFSET 0.000000 0.000000 0.000000
														}
													}
												}
											}
										}
										JOINT RightHandIndex1
										{
											OFFSET -8.811420 0.015533 2.887987
											CHANNELS 3 Xrotation Yrotation Zrotation
											JOINT RightHandIndex2
											{
												OFFSET -3.537502 0.000000 0.000000
												CHANNELS 3 Xrotation Yrotation Zrotation
												JOINT RightHandIndex3
												{
													OFFSET -3.356201 0.000000 0.000000
													CHANNELS 3 Xrotation Yrotation Zrotation
													JOINT RightHandIndex4
													{
														OFFSET -1.933098 0.000000 0.000000
														CHANNELS 3 Xrotation Yrotation Zrotation
														End Site
														{
															OFFSET 0.000000 0.000000 0.000000
														}
													}
												}
											}
										}
										JOINT RightHandMiddle1
										{
											OFFSET -8.178135 0.000000 0.000000
											CHANNELS 3 Xrotation Yrotation Zrotation
											JOINT RightHandMiddle2
											{
												OFFSET -3.901302 0.000000 0.000000
												CHANNELS 3 Xrotation Yrotation Zrotation
												JOINT RightHandMiddle3
												{
													OFFSET -3.909599 0.000000 0.000000
													CHANNELS 3 Xrotation Yrotation Zrotation
													JOINT RightHandMiddle4
													{
														OFFSET -2.376003 0.000000 0.000000
														CHANNELS 3 Xrotation Yrotation Zrotation
														End Site
														{
															OFFSET 0.000000 0.000000 0.000000
														}
													}
												}
											}
										}
										JOINT RightHandRing1
										{
											OFFSET -7.559013 0.014137 -2.865403
											CHANNELS 3 Xrotation Yrotation Zrotation
											JOINT RightHandRing2
											{
												OFFSET -3.449306 0.000000 0.000000
												CHANNELS 3 Xrotation Yrotation Zrotation
												JOINT RightHandRing3
												{
													OFFSET -3.362106 0.000000 0.000000
													CHANNELS 3 Xrotation Yrotation Zrotation
													JOINT RightHandRing4
													{
														OFFSET -2.076401 0.000000 0.000000
														CHANNELS 3 Xrotation Yrotation Zrotation
														End Site
														{
															OFFSET 0.000000 0.000000 0.000000
														}
													}
												}
											}
										}
									}
								}
							}
						}
					}
				}
			}
		}
	}
	JOINT LeftUpLeg
	{
		OFFSET 10.205400 -3.823500 0.155100
		CHANNELS 3 Xrotation Yrotation Zrotation
		JOINT LeftLeg
		{
			OFFSET 0.708757 -12.982077 0.567790
			CHANNELS 3 Xrotation Yrotation Zrotation
			JOINT LeftFoot
			{
				OFFSET -0.708756 -10.717838 -2.184338
				CHANNELS 3 Xrotation Yrotation Zrotation
				JOINT LeftToeBase
				{
					OFFSET 0.108149 -7.191104 7.560241
					CHANNELS 3 Xrotation Yrotation Zrotation
					JOINT LeftToe_End
					{
						OFFSET 0.070230 0.081724 4.490308
						CHANNELS 3 Xrotation Yrotation Zrotation
						End Site
						{
							OFFSET 0.000000 0.000000 0.000000
						}
					}
				}
			}
		}
	}
	JOINT RightUpLeg
	{
		OFFSET -10.205400 -3.823500 0.005500
		CHANNELS 3 Xrotation Yrotation Zrotation
		JOINT RightLeg
		{
			OFFSET -0.708756 -12.982134 0.610632
			CHANNELS 3 Xrotation Yrotation Zrotation
			JOINT RightFoot
			{
				OFFSET 0.708754 -10.717769 -1.945823
				CHANNELS 3 Xrotation Yrotation Zrotation
				JOINT RightToeBase
				{
					OFFSET -0.108140 -7.191069 7.372968
					CHANNELS 3 Xrotation Yrotation Zrotation
					JOINT RightToe_End
					{
						OFFSET -0.070227 0.081735 4.479403
						CHANNELS 3 Xrotation Yrotation Zrotation
						End Site
						{
							OFFSET 0.000000 0.000000 0.000000
						}
					}
				}
			}
		}
	}
}
MOTION
Frames: 4
Frame Time: 0.016667
0.103324 28.932659 -1.431486 -14.106513 4.568835 -0.093821 20.019771 -0.127854 0.602940 6.967086 -0.338071 0.675294 0.000000 0.000000 0.000000 6.967317 -0.337865 0.674353 -12.249459 -1.248218 -0.495995 -16.116728 -1.754206 -0.002254 -0.000000 -0.000000 -0.000000 3.082219 -9.945136 -6.811315 0.000000 0.000000 0.000000 -13.959286 -7.908212 -60.295278 69.634352 -63.509107 71.597144 17.167875 -2.491263 -13.648312 2.689269 3.159874 6.593330 -0.080956 21.143665 -2.539991 -0.000004 0.000015 -0.000001 0.000001 0.000003 -0.000000 -10.621168 2.937291 -19.267713 1.669094 6.188704 -21.755659 0.000002 0.000012 0.000002 0.000000 0.000000 -0.000001 -13.823048 9.936956 -22.469203 6.048999 4.246410 -31.221973 0.000013 -0.000016 0.000007 -0.000001 0.000001 -0.000000 -10.744691 8.325272 -36.571087 3.038178 0.221629 -39.078705 -0.000000 -0.000013 0.000008 0.000001 0.000001 0.000002 8.709551 -2.418526 18.823117 0.000000 0.000000 0.000000 -21.494470 12.934351 56.855492 76.344221 65.516978 -70.724683 6.443804 -2.140706 3.544994 2.694428 -3.160161 -6.583873 -0.079173 -21.146001 2.540876 0.000002 -0.000012 -0.000010 -0.000001 0.000001 -0.000002 -10.621228 -2.937094 19.269092 1.668973 -6.188789 21.755279 -0.000009 0.000003 0.000006 0.000001 -0.000002 -0.000002 -13.688462 -10.244153 24.164193 6.044757 -4.250366 31.223356 0.000002 0.000009 0.000000 -0.000000 -0.000000 0.000002 -10.744586 -8.325829 36.570014 3.042373 -0.220455 39.078770 0.000002 0.000006 0.000004 0.000001 0.000001 0.000001 -21.005335 -6.444022 19.217670 64.972939 -3.857495 -0.028816 -28.580571 1.216387 -16.232573 -0.000119 -0.000002 -0.000003 -0.000000 -0.000000 0.000000 -9.659252 -7.636251 -20.800441 62.778577 4.253368 0.106010 -36.926304 -7.504138 14.529194 0.000009 -0.000001 -0.000002 0.000000 0.000001 -0.000000 
0.105130 28.931515 -1.431452 -14.083709 4.581435 -0.103249 20.019759 -0.127986 0.602323 6.967167 -0.337049 0.675000 0.000000 0.000000 0.000000 6.967383 -0.336798 0.673819 -12.274426 -1.249902 -0.501451 -16.104609 -1.759240 0.008366 -0.000001 -0.000000 -0.000000 3.081941 -9.940220 -6.846194 0.000000 0.000000 0.000000 -13.919033 -8.007096 -60.186561 69.508397 -63.495228 71.476154 17.165993 -2.496268 -13.676329 2.740396 3.355884 6.651972 -0.304260 20.508159 -2.520050 -0.000005 0.000013 -0.000001 -0.000002 -0.000002 0.000003 -10.843761 2.408692 -18.034233 1.583731 5.984707 -20.446035 0.000001 0.000010 -0.000001 -0.000000 0.000002 0.000002 -13.988350 9.479591 -21.637645 5.872521 4.134115 -30.142943 0.000011 -0.000018 0.000007 -0.000000 0.000002 -0.000000 -10.745605 7.991147 -35.808233 2.902352 0.024361 -37.900897 -0.000002 -0.000018 0.000011 -0.000000 0.000001 0.000001 8.720000 -2.431957 18.863482 0.000000 0.000000 0.000000 -21.419402 13.027300 56.754159 76.284095 65.521533 -70.684357 6.443182 -2.129478 3.550577 2.691613 -3.150264 -6.581361 -0.140272 -20.912595 2.443751 -0.000001 -0.000009 -0.000009 -0.000002 -0.000002 -0.000002 -10.723863 -2.678715 18.376257 1.607994 -6.040026 20.834092 -0.000006 -0.000001 0.000001 0.000002 0.000001 -0.000002 -13.789848 -9.992688 23.322260 5.930031 -4.112810 30.347692 0.000004 0.000003 0.000001 0.000000 0.000000 -0.000001 -10.804173 -8.106047 35.619515 2.942610 -0.098399 38.315838 0.000004 0.000006 0.000004 0.000002 -0.000002 -0.000000 -21.059155 -6.436617 19.227708 64.998184 -3.904433 -0.027897 -28.582658 1.226560 -16.201233 -0.000126 -0.000002 -0.000001 0.000000 0.000000 -0.000000 -9.676455 -7.645858 -20.795411 62.772369 4.254557 0.106280 -36.923145 -7.509596 14.531806 0.000008 0.000000 -0.000002 0.000000 0.000001 0.000000 
0.109172 28.929619 -1.431448 -14.048658 4.613836 -0.117831 20.019798 -0.128342 0.600856 6.967763 -0.333988 0.674076 0.000000 0.000000 0.000000 6.967986 -0.333704 0.672075 -12.339813 -1.259016 -0.511593 -16.061070 -1.772782 0.024099 -0.000001 0.000000 0.000000 3.081507 -9.932734 -6.899788 0.000000 0.000000 0.000000 -13.772153 -8.303066 -59.856588 69.210553 -63.491185 71.193657 17.161950 -2.546429 -13.762123 2.843732 3.755993 6.771135 -0.770454 19.209943 -2.488553 -0.000005 0.000013 0.000001 -0.000004 -0.000000 0.000003 -11.271538 1.302791 -15.505441 1.424444 5.551974 -17.730259 0.000002 0.000011 -0.000001 -0.000001 -0.000001 -0.000002 -14.321393 8.535466 -19.931527 5.513432 3.887935 -27.908904 0.000011 -0.000015 0.000008 -0.000001 0.000002 0.000001 -10.734840 7.300024 -34.231771 2.630251 -0.392177 -35.470702 -0.000001 -0.000007 0.000009 -0.000000 0.000003 -0.000001 8.739790 -2.465322 18.929408 0.000000 0.000000 0.000000 -21.199621 13.256779 56.475593 76.163938 65.580321 -70.597423 6.440266 -2.094174 3.595600 2.684929 -3.126733 -6.575406 -0.271202 -20.426833 2.250012 0.000001 -0.000009 -0.000009 -0.000001 0.000002 -0.000000 -10.925248 -2.140286 16.541895 1.491018 -5.724735 18.914805 -0.000011 0.000002 0.000004 -0.000001 0.000001 0.000001 -13.991211 -9.467905 21.606999 5.700156 -3.821582 28.537084 0.000000 0.000007 0.000003 -0.000001 -0.000004 -0.000000 -10.911710 -7.639107 33.676719 2.742894 0.160230 36.738502 0.000001 0.000006 0.000004 -0.000001 0.000003 0.000000 -21.156395 -6.427990 19.239497 65.043973 -3.988116 -0.026167 -28.582253 1.240157 -16.142064 -0.000125 -0.000000 -0.000002 0.000000 0.000000 0.000000 -9.691774 -7.670279 -20.790415 62.753333 4.255119 0.107037 -36.917955 -7.522162 14.541322 0.000009 -0.000001 -0.000002 0.000000 0.000001 0.000000 
0.113835 28.928875 -1.430254 -14.042355 4.658484 -0.118945 20.020179 -0.129064 0.598227 6.970447 -0.329654 0.671555 0.000000 0.000000 0.000000 6.970665 -0.329434 0.668393 -12.447035 -1.280075 -0.519118 -15.961775 -1.792115 0.025987 -0.000001 -0.000000 -0.000000 3.083193 -9.935522 -6.902681 0.000000 0.000000 0.000000 -13.503010 -8.789845 -59.312386 68.869829 -63.545949 70.887234 17.160111 -2.676783 -13.924316 2.936491 4.117317 6.878272 -1.207036 18.029220 -2.472044 -0.000002 0.000014 -0.000002 -0.000003 -0.000001 -0.000001 -11.627920 0.244306 -13.176304 1.292630 5.132266 -15.152088 -0.000001 0.000008 0.000002 0.000000 -0.000001 -0.000001 -14.610806 7.654092 -18.356417 5.188265 3.625270 -25.799310 0.000014 -0.000013 0.000009 0.000002 0.000003 0.000000 -10.691639 6.650394 -32.754596 2.397528 -0.806234 -33.196229 -0.000001 -0.000016 0.000008 -0.000000 0.000000 -0.000000 8.753004 -2.509394 18.951226 0.000000 0.000000 0.000000 -20.864467 13.561962 56.069282 76.084353 65.725722 -70.530419 6.436108 -2.033731 3.726628 2.676291 -3.096398 -6.567734 -0.405713 -19.963000 2.085445 -0.000002 -0.000011 -0.000010 -0.000000 -0.000002 -0.000002 -11.113367 -1.627052 14.850561 1.387883 -5.417896 17.068585 -0.000012 -0.000001 0.000007 -0.000003 -0.000001 -0.000000 -14.172682 -8.971361 20.058905 5.490037 -3.541229 26.833423 0.000003 0.000011 0.000000 -0.000001 -0.000002 -0.000001 -10.985400 -7.177309 31.907748 2.563244 0.413033 35.256118 0.000003 0.000008 0.000005 -0.000000 0.000005 0.000001 -21.210343 -6.439532 19.225318 65.072810 -4.027599 -0.024896 -28.576178 1.236576 -16.103998 -0.000120 -0.000001 -0.000002 0.000000 0.000000 0.000000 -9.658367 -7.706038 -20.801358 62.721948 4.252585 0.108210 -36.920492 -7.535046 14.559902 0.000009 0.000001 -0.000003 0.000000 -0.000001 0.000000 
